<svg xmlns="http://www.w3.org/2000/svg" version="1.1" xmlns:xlink="http://www.w3.org/1999/xlink" xmlns:svgjs="http://svgjs.dev/svgjs" width="512" height="512"><svg width="512" height="512" viewBox="0 0 512 512" fill="none" xmlns="http://www.w3.org/2000/svg">
<rect width="512" height="512" rx="48" fill="#619C71"></rect>
<path d="M433.383 411.257C441.735 408.991 450.049 406.556 458.315 403.951C456.119 396.19 453.923 388.429 451.74 380.655C459.82 378.116 467.851 375.407 475.833 372.529C473.353 364.859 470.886 357.189 468.406 349.519C453.072 355.028 437.602 359.911 421.91 364.169C425.734 379.861 429.558 395.552 433.383 411.244V411.257Z" fill="white"></path>
<path d="M413.175 125.084C385.356 136.401 357.204 144.331 327.756 149.149L324.228 125.124C352.047 120.566 378.632 113.078 404.897 102.4C407.66 109.966 410.412 117.519 413.175 125.084Z" fill="white"></path>
<path d="M433.876 181.795C379.768 203.803 322.267 215.093 264.284 215.093V166.482C316.616 166.482 368.492 156.298 417.32 136.44L433.876 181.795Z" fill="white"></path>
<path d="M69.8463 249.835C174.893 292.561 289.944 299.619 398.976 270.02C395.151 254.328 391.327 238.637 387.502 222.945C298.839 247.01 205.574 244.64 118.12 216.082C124.929 192.864 131.727 169.646 138.537 146.415C129.334 143.406 120.254 140.086 111.26 136.427C97.4557 174.23 83.6633 212.033 69.8586 249.835H69.8463Z" fill="white"></path>
<path d="M412.25 240.902C418.628 238.897 424.969 236.761 431.261 234.496C428.781 226.826 426.313 219.156 423.834 211.486C417.814 213.647 411.756 215.692 405.662 217.606C407.858 225.367 410.054 233.128 412.237 240.902H412.25Z" fill="white"></path>
<path d="M84.095 332.187C214.987 374.925 355.711 369.872 483.556 317.875C478.041 302.757 472.514 287.638 467 272.52C336.527 325.584 192.041 325.584 61.5683 272.52C50.527 302.757 39.4858 333.007 28.4445 363.244C42.2985 368.883 56.3006 374 70.4754 378.636C75.0153 363.153 79.5428 347.67 84.0827 332.2L84.095 332.187Z" fill="white"></path>
</svg><style>@media (prefers-color-scheme: light) { :root { filter: none; } }
@media (prefers-color-scheme: dark) { :root { filter: none; } }
</style></svg>