<svg width="24" height="24" viewBox="0 0 24 24" fill="none" xmlns="http://www.w3.org/2000/svg">
<g clip-path="url(#clip0_2678_1508)">
<path d="M23.7611 7.20005C23.7611 7.20005 23.5267 5.54536 22.8048 4.8188C21.8907 3.86255 20.8689 3.85786 20.4001 3.80161C17.0439 3.55786 12.0048 3.55786 12.0048 3.55786H11.9954C11.9954 3.55786 6.95637 3.55786 3.60012 3.80161C3.13137 3.85786 2.1095 3.86255 1.19543 4.8188C0.47356 5.54536 0.243872 7.20005 0.243872 7.20005C0.243872 7.20005 0.00012207 9.14536 0.00012207 11.086V12.9047C0.00012207 14.8454 0.239185 16.7907 0.239185 16.7907C0.239185 16.7907 0.473559 18.4454 1.19075 19.1719C2.10481 20.1282 3.30481 20.0954 3.83918 20.1985C5.76106 20.3813 12.0001 20.4375 12.0001 20.4375C12.0001 20.4375 17.0439 20.4282 20.4001 20.1891C20.8689 20.1329 21.8907 20.1282 22.8048 19.1719C23.5267 18.4454 23.7611 16.7907 23.7611 16.7907C23.7611 16.7907 24.0001 14.85 24.0001 12.9047V11.086C24.0001 9.14536 23.7611 7.20005 23.7611 7.20005ZM9.52044 15.1125V8.36724L16.0032 11.7516L9.52044 15.1125Z" fill="#52525B"/>
</g>
<defs>
<clipPath id="clip0_2678_1508">
<rect width="24" height="24" fill="white"/>
</clipPath>
</defs>
</svg>
